<mxfile host="app.diagrams.net" modified="2024-01-26T11:05:13.252Z" agent="Mozilla/5.0 (Macintosh; Intel Mac OS X 10_15_7) AppleWebKit/537.36 (KHTML, like Gecko) Chrome/120.0.0.0 Safari/537.36" etag="giKDzGsU_XMCSb4hxQY6" version="23.0.1" type="github">
  <diagram name="Page-1" id="GcOsXRJ8AvoDFU7_Izoy">
    <mxGraphModel dx="3781" dy="1021" grid="1" gridSize="10" guides="1" tooltips="1" connect="1" arrows="1" fold="1" page="1" pageScale="1" pageWidth="827" pageHeight="1169" math="0" shadow="0">
      <root>
        <mxCell id="0" />
        <mxCell id="1" parent="0" />
        <mxCell id="sRP4vnEstUWdpdvkVeDb-2" value="uc-connector{1-6}-drk.fit.fraunhofer.de&lt;br style=&quot;font-size: 20px;&quot;&gt;Private key for X.509 certificate&lt;br style=&quot;font-size: 20px;&quot;&gt;Policies&lt;br style=&quot;font-size: 20px;&quot;&gt;Assets&lt;br style=&quot;font-size: 20px;&quot;&gt;Contract Definitions&lt;br style=&quot;font-size: 20px;&quot;&gt;Contracts" style="text;html=1;align=center;verticalAlign=middle;resizable=0;points=[];autosize=1;strokeColor=none;fillColor=none;fontSize=20;" parent="1" vertex="1">
          <mxGeometry x="-220" y="1070" width="360" height="160" as="geometry" />
        </mxCell>
        <mxCell id="sRP4vnEstUWdpdvkVeDb-107" style="edgeStyle=orthogonalEdgeStyle;rounded=0;orthogonalLoop=1;jettySize=auto;html=1;entryX=1;entryY=0;entryDx=0;entryDy=15;entryPerimeter=0;" parent="1" source="Ju1k-qK01QZzVdO8_IxP-15" target="sRP4vnEstUWdpdvkVeDb-74" edge="1">
          <mxGeometry relative="1" as="geometry" />
        </mxCell>
        <mxCell id="sRP4vnEstUWdpdvkVeDb-5" value="" style="outlineConnect=0;dashed=0;verticalLabelPosition=bottom;verticalAlign=top;align=center;html=1;shape=mxgraph.aws3.iam;fillColor=#759C3E;gradientColor=none;" parent="1" vertex="1">
          <mxGeometry x="360" y="690" width="40" height="80" as="geometry" />
        </mxCell>
        <mxCell id="sRP4vnEstUWdpdvkVeDb-7" value="&lt;font style=&quot;font-size: 20px;&quot;&gt;uc-daps-drk.fit.fraunhofer.de&lt;/font&gt;" style="text;html=1;align=center;verticalAlign=middle;resizable=0;points=[];autosize=1;strokeColor=none;fillColor=none;fontSize=18;fontColor=default;" parent="1" vertex="1">
          <mxGeometry x="245" y="630" width="270" height="40" as="geometry" />
        </mxCell>
        <mxCell id="sRP4vnEstUWdpdvkVeDb-75" value="" style="group" parent="1" vertex="1" connectable="0">
          <mxGeometry x="125.5" y="830" width="104.5" height="292.75" as="geometry" />
        </mxCell>
        <mxCell id="sRP4vnEstUWdpdvkVeDb-80" value="" style="group" parent="sRP4vnEstUWdpdvkVeDb-75" vertex="1" connectable="0">
          <mxGeometry x="-10.5" y="-27.25" width="115" height="320" as="geometry" />
        </mxCell>
        <mxCell id="sRP4vnEstUWdpdvkVeDb-74" value="" style="shape=cylinder3;whiteSpace=wrap;html=1;boundedLbl=1;backgroundOutline=1;size=15;" parent="sRP4vnEstUWdpdvkVeDb-80" vertex="1">
          <mxGeometry width="115" height="320" as="geometry" />
        </mxCell>
        <mxCell id="sRP4vnEstUWdpdvkVeDb-1" value="" style="outlineConnect=0;dashed=0;verticalLabelPosition=bottom;verticalAlign=top;align=center;html=1;shape=mxgraph.aws3.connect;fillColor=#759C3E;gradientColor=none;" parent="sRP4vnEstUWdpdvkVeDb-80" vertex="1">
          <mxGeometry x="12.5" y="27.25" width="90" height="69" as="geometry" />
        </mxCell>
        <mxCell id="sRP4vnEstUWdpdvkVeDb-67" value="" style="sketch=0;pointerEvents=1;shadow=0;dashed=0;html=1;strokeColor=none;fillColor=#DF8C42;labelPosition=center;verticalLabelPosition=bottom;verticalAlign=top;align=center;outlineConnect=0;shape=mxgraph.veeam2.restful_api;" parent="sRP4vnEstUWdpdvkVeDb-80" vertex="1">
          <mxGeometry x="10.5" y="111" width="94" height="87" as="geometry" />
        </mxCell>
        <mxCell id="sRP4vnEstUWdpdvkVeDb-68" value="" style="shadow=0;dashed=0;html=1;strokeColor=none;fillColor=#4495D1;labelPosition=center;verticalLabelPosition=bottom;verticalAlign=top;align=center;outlineConnect=0;shape=mxgraph.veeam.2d.web_ui;" parent="sRP4vnEstUWdpdvkVeDb-80" vertex="1">
          <mxGeometry x="15.100000000000023" y="221" width="84.8" height="84.8" as="geometry" />
        </mxCell>
        <mxCell id="sRP4vnEstUWdpdvkVeDb-94" value="" style="group" parent="1" vertex="1" connectable="0">
          <mxGeometry x="-170" y="900" width="210" height="140" as="geometry" />
        </mxCell>
        <mxCell id="sRP4vnEstUWdpdvkVeDb-95" value="" style="rounded=1;whiteSpace=wrap;html=1;" parent="sRP4vnEstUWdpdvkVeDb-94" vertex="1">
          <mxGeometry width="210" height="99.19854280510019" as="geometry" />
        </mxCell>
        <mxCell id="sRP4vnEstUWdpdvkVeDb-96" value="" style="outlineConnect=0;dashed=0;verticalLabelPosition=bottom;verticalAlign=top;align=center;html=1;shape=mxgraph.aws3.bucket_with_objects;fillColor=#E05243;gradientColor=none;" parent="sRP4vnEstUWdpdvkVeDb-94" vertex="1">
          <mxGeometry x="120" y="17.585428051001834" width="60" height="63.374863387978145" as="geometry" />
        </mxCell>
        <mxCell id="sRP4vnEstUWdpdvkVeDb-97" value="Storage" style="text;html=1;align=center;verticalAlign=middle;resizable=0;points=[];autosize=1;strokeColor=none;fillColor=none;fontSize=20;" parent="sRP4vnEstUWdpdvkVeDb-94" vertex="1">
          <mxGeometry x="60" y="99.19854280510019" width="90" height="40" as="geometry" />
        </mxCell>
        <mxCell id="sRP4vnEstUWdpdvkVeDb-98" value="" style="sketch=0;pointerEvents=1;shadow=0;dashed=0;html=1;strokeColor=none;fillColor=#DF8C42;labelPosition=center;verticalLabelPosition=bottom;verticalAlign=top;align=center;outlineConnect=0;shape=mxgraph.veeam2.restful_api;" parent="sRP4vnEstUWdpdvkVeDb-94" vertex="1">
          <mxGeometry x="30" y="17.585428051001834" width="74" height="71.79016393442623" as="geometry" />
        </mxCell>
        <mxCell id="sRP4vnEstUWdpdvkVeDb-99" style="edgeStyle=orthogonalEdgeStyle;rounded=0;orthogonalLoop=1;jettySize=auto;html=1;entryX=0.004;entryY=0.459;entryDx=0;entryDy=0;entryPerimeter=0;startArrow=classic;startFill=1;" parent="1" source="sRP4vnEstUWdpdvkVeDb-95" target="sRP4vnEstUWdpdvkVeDb-74" edge="1">
          <mxGeometry relative="1" as="geometry" />
        </mxCell>
        <mxCell id="sRP4vnEstUWdpdvkVeDb-104" style="edgeStyle=orthogonalEdgeStyle;rounded=0;orthogonalLoop=1;jettySize=auto;html=1;entryX=0.08;entryY=0.11;entryDx=0;entryDy=0;entryPerimeter=0;" parent="1" source="sRP4vnEstUWdpdvkVeDb-74" target="sRP4vnEstUWdpdvkVeDb-5" edge="1">
          <mxGeometry relative="1" as="geometry">
            <Array as="points">
              <mxPoint x="170" y="680" />
              <mxPoint x="363" y="680" />
            </Array>
          </mxGeometry>
        </mxCell>
        <mxCell id="Ju1k-qK01QZzVdO8_IxP-43" value="" style="edgeStyle=orthogonalEdgeStyle;rounded=0;orthogonalLoop=1;jettySize=auto;html=1;startArrow=classic;startFill=1;" parent="1" source="sRP4vnEstUWdpdvkVeDb-140" target="Ju1k-qK01QZzVdO8_IxP-40" edge="1">
          <mxGeometry relative="1" as="geometry" />
        </mxCell>
        <mxCell id="sRP4vnEstUWdpdvkVeDb-140" value="" style="sketch=0;outlineConnect=0;fontColor=#232F3E;gradientColor=none;fillColor=#B0084D;strokeColor=none;dashed=0;verticalLabelPosition=bottom;verticalAlign=top;align=center;html=1;fontSize=12;fontStyle=0;aspect=fixed;pointerEvents=1;shape=mxgraph.aws4.mq_broker;" parent="1" vertex="1">
          <mxGeometry x="341" y="1130" width="120" height="120" as="geometry" />
        </mxCell>
        <mxCell id="sRP4vnEstUWdpdvkVeDb-141" value="&lt;font style=&quot;font-size: 20px;&quot;&gt;uc-broker-drk.fit.fraunhofer.de&lt;/font&gt;" style="text;html=1;align=center;verticalAlign=middle;resizable=0;points=[];autosize=1;strokeColor=none;fillColor=none;" parent="1" vertex="1">
          <mxGeometry x="258" y="1090" width="290" height="40" as="geometry" />
        </mxCell>
        <mxCell id="_Jc5pRLIT6cwghWnT4pu-1" value="" style="shape=image;verticalLabelPosition=bottom;labelBackgroundColor=default;verticalAlign=top;aspect=fixed;imageAspect=0;image=data:image/png,iVBORw0KGgoAAAANSUhEUgAAAQAAAAEACAYAAABccqhmAAAACXBIWXMAAAsTAAALEwEAmpwYAAAAGXRFWHRTb2Z0d2FyZQBBZG9iZSBJbWFnZVJlYWR5ccllPAAAKJdJREFUeNrsXXuQXFWZPzP9mkf3vJNJZpLJZMjTgCQu+EREAavchSHUmnItlMQoLiIs+UfXRS1CsaUsWFTcXZRaQJIAIhVREtxSBBQELNeo5P0YzJuZTDIzmWdm+t17v07fsdPTj/v43XtPd3+/qqlInNzue+85v/M73+8731eRSCQEg8EoT1QwATAYTAAMBoMJgMFgMAEwGAwmAAaDwQTAYDCYABgMBhMAg8FgAmAwGEwADAaDCYDBYDABMBgMJgAGg8EEwGAwmAAYDAYTAIPBYAJgMBhMAAwGgwmAwWAwATAYDCYABoPBBMBgMJgAGAwGE4CN6O7uXqn8sUn5+Rg/jZLECeVnw44dO17gR8EEkDn5G5Q/jis/9fw0Sh6rFBLYxY9BiEp+BNPYwJO/bLCJHwErgPTVv1P54xgPh7LCFxQVsJkVAIOwmR9B2WFjatvHBFDmq/81goN+5YgFqW0fEwCv/owyxYbU9o8JoExX/w2plYBRnqCg78ZyfgBlGwRk24+Rho/v2LHjNVYA5YVNPPkZaWOBFUAZrf6U8fc2j3tGGsrSFixXBcCJIIwZY6IcbcGyIwDlJa8WbPsxZoK2gxuYAHj1Z5Qv7i03W7CsCEB5uRsF234MXiCmUTZBwBSz7xIc+WcURtnYguWkADby5GdoxGbeApTW6n+N8sdaHtcMjViQyhJlAiih1Z/B0DVmysEWLHkCUF7iOsG2H0M/yuKcQEkHAVMMToE/jvwzjGLhjh07jrMCKE7waT+GWWxmBVCcq3+n4DJfDAxuLtVKwqWsADjjj8FjqRwJIGX73cTjlgHCglQWKRMAMzajTLGhFG3BkiOAlO13OY9XBhj1pbiwlFQQkMt8MWxASXUVKjUFsJEnP4O3l2WoANj2Y9iIkikfVkoKYDOPS4ZdSrNUAoIlQQDc3YdhM0qmq1CpKABe/Rl2oyS6ChU9AXB3H4ZDKInTgkUdBCwG22+yyi9OtV4CuVZtaELM6z8i9TuZXPReEZuLWRi9Jw4L38nDsg/Doi4f5i5yApO6u8/hBZeLno73wq7nFQkxuOIjYuWrW6W83/1XrRG+VR8WNf4A5oJXKaS38xVR/8pPZB6DpAKu4S2A/as/dfeRtszXWG0TdPITwl2XilPLPiiG2pfIt/IHmsXRyz8ujogq6HXPX3mdCHUslXkofiyVfcoE4MDqLy32XXIF9Ho+n08If13yf7997a3S3e+u6y58p3A8IQbGJ6DXHrlhvfRjsVhtwaIkANm7+/Q3zxdD9a2w67niMRFauGL6v6cCTcpq+wlp7pcUyVDb4un/7lU2KyIagV0/Vt+sKIHrZR6SRdtVqFgVgOSr/5XQ61U0zRbC67vo73re/w8i4quW4n4zFUksIcSpYBT6GeMf7RbxqhqZX3tRdhUqOgKQvbsPBf6mfLWw63kScRFt75rx9xFvtei58gbn71chIlIkmTgbd4nY+XHY58QVshu77p94YSpnAkgxrLRSK+L2imNty6HXjLcpt+zKbtZQ0I2Cb47drzIpj+XZihypwCqUycs+LCKt82UeojelslKZACzCRiGx7be/6wqFBDyw6/kqFDk9qz3v76jBN0fu96o1SSWSU7ZH42JidAT6maOsAsqTAGTv7kNBP1TCj4rQosI2IgXf+rvsr38y1jIvaUkWwjGXsh2KhGGfG+5YKoJLVsk8VC8vpq5CxaQANsr85Wjvj0TS9qvWFkvYp6zEdmPfR7V9ZtIWDIahn10EKqBoTgsWBQHI3t2HVn6o7ZeIa1r9VVAQjoJxdoEUR7rtVwhkC8aDk7DPJ1uQXAGJUTTnBCqLYPI3yLyvosAfevWvaJyVM/CXU2pf/glbbEH6DL2Kg2zBk1gRkMwLiNW3yDx07y4GW7AYFMAGIXHg72j7crzt16E/1ZeCcftt2ApQAlI2269grEK4RWR8FPY9yBaUXAUQNjMBmFv9iUHvlfX70Uk/dL5/fJ7xQCIF5Sg4Z9n9Bprz2n6F8NdKbCIP2YJFcE7gGiYA45DaUiHbDwmvyyVizXNMXUNrcM4IktmHXuPbjEllL4C2BVkFlCgByN7dh4J+lPOPRHix+ViCVbYg5ftrsf00qQCwLTj53o/IPMek7iokswIoq3x/b21gRr6/mX06GoPtiyHXoYAg2hYcv6oozglsltEalLIi0MMPP/zfK1eu/OrixYul+D7nz5+/4Mun8NPjg+LrfzoOu36V2yWCS9+nO/KfCx+oTohn52MP43x/yKX84NaLj9R7RDBRAbvemtqwWOO/QCwjIyPC7XaL6upqYeX4npycFF6vV59iCYeT340VQA489thjC2688cY7ZJn8NIDSJ/9YJCbu330K+xmU3+7CDYrr/XH4c1juw06kPedj0OttO+8V/eGEiEajwu/3i6qqKukmv/rveAuQBx0dHS8qL69Clu8zNjZ28Up4oE+MR3CDN1DlE6HmubDrtXsSYn0jngA+qZAKKQuYbI/GhVtgv+eW81W2jAmjk59QW1vLBJALTz755FXt7e2XyfJ9QqHQRS/s3fMh8eQ7Z7D717ZF0Os91Bqz7Hk8NAd77bcnsNf7c9gjDkTc0k5+gsfjYQLIhWXLlr2YLredlv6x2MUD9GvAfT+hsbFxuswXau//wRrrZO88RV18Aagu6JxANIYlgacmq6Wd/CoopsQEkIHHH3/8W4r8b6ipkSOaOz4+ftHL/sPAuPi/gXHoZwy3LpR6hc6Gu5tjIgAcNfsmY8JTgSOtE1GX+GUQv4hMTExAJn9y0lVWMgFk4kMf+tB0xl9FhbMhAJL+mUT0tZ3YvqOBufNgth+BVmZaoa1GXeUFEkCBbMG+IDYW8PxklZgEOgyRSCTpKKAgUxxACgJ48cUXX2toaJjevJFV4iTi8YsH5I+UfX/vJO47+dwuMd6EC/wFwJOyECjIiHQFToZiogqoAmjy/3SyCjb5acVGOwrkVjABXJD+C97znvdcnbnXcgoU9U8P1JDtR5F/JCraFkJtv2/PjiVXZjvx7VlYwkHbgr9StgED8UopJ7/TY1wqAujs7Hw10/bLXIHtAr3oTOl//66TUNuvyV8jgg2zYNejlfjTdfY/Lwo2IvMNyBasAL/3RydqpJz8Mm0DHCWALVu2fGb58uUzjr8FAgFHvg8FetJxYGRSPH9iCPoZ52ZjA3/olVjfZ2Mn7J5J7L0cjLgN2YJWT36CLHagowSwZMmSR7P9PSraqlf6ZwZ60Bl/LS2zoLYfrcBW2n6FQEHHu5uxtuBEBEsCelWAHZNfhQx2oGMEoKz+/0m2X859so1OQDbp/+u+EajtV+12icEW3OlBCvyhV2Aj+EIj1hb8azAmfAI3+QbjlUlXQLbJn5x8EtiBjnwDCvxdccUVX5ElSJKZ7pvM91f2/ki4Z82F2n7rbbL9CoGCjxSERIFswRMhrAqgvIBCtqDdk1+WOIAjBNDa2rol3fbLBvLi7QDJsMwX8STY9qN8f6Tt157MyIsJWUBBSOQ5gd5QXFEBOHVDk3/r+WqpJr8Kp+1A2wmA8v0zbb9cstwO6Z+Zekz5/j8C5/tH53ZCbT/ad9dJdowLnYewdxK7vfldyJvMEpRp8tutdKUggPnz52/Wctqvudn6lleU7psJ9Gm/WfV1hopo5gKttE7YfoVAwch/rEPbglhS2ZpxTsDpyS/DNsBWAnj66ac3ZLP9nEC2dF/K90fbfgOzO6VeabHfLQ4NCO5RVIAXmCFItiApAVkmP8FpO9BWAli4cOH9en7fKicg20k/dfVHImn7VeMYnlZYJ22/QqCg5Nq6COx6ZAueC2PVDqUIj4ajUkx+FU7agbYRwLZt2x7v7Oz0m5XoKOmfmWtAZb6Qth+V+Rpsxa3+AXC03QpQItW6hphoc+Mm1uEpvC3460itkKkUnpN2oC2fTLbf+973vvV6/50VEdJs0t+KMl8esv2AgT+y/eokLeFKh7fouVJANVARF99sxh7mOhbEjoOXQlUKEbikeX5OxgFsGVJk+xkp82VF8cRs5wzI9kOX+RqfhUv6aU9m3Mm5+tOqTytY+ip2XU1MvL8KJ91PhxNwW/BnIbmqCDtlB1pOAGT7Kau/ocaedXV10O+SedKPQLYfeu+PLvMlQ8Zfrr0rrfrZ5PQ9YBWwC3xa8M2wTxyMylOeyyk70HIC6Orq2ibDA86W7ktAS/9GIi1wma9P+uUiAFr1acXKd2ZjuTcubvbjVjXqKhQBlw97JihPYQ6ntgGWEgDZfosWLTLV6wrlBGSe9COQ7fdyH7ZV1TB69Zcs8Jdv1Z+pAiIiUIkLtu2n8mHAgODJmFu8Ea6S4rk6ZQdaSgCXXXbZg2avce7cOcigzVbS6f5d2NW/qXUOvMzXe3xyRKu1rPoztnCVZAviVECyfFgIrwKQ5cPMjtOSIYDnn3/+54FAwDStmbVIsqX7Eijd9+Aobt9Ftt858Gk/WQJ/elb9TNzVGIHagieT5wSw5cNeClVL8ZydsAMt+UTq7qOs/jdRFN/soR6zZcIzT/ol/86CMl/o7j40+Z22/Yys+tnwH7OwAcG94MIhPw/VSGELOhEHsGSItbW1vaDafmZJwEyZ8MzGHirQ+f5U5qsYuvvYtepn4v1VWFsw2VUogX0+/zPlFzLAbjsQTgAPP/zw3yur/8r0vzNLAkYCgbnSfa3o7oMu82Vld59CmJqagqz6mXhgFvZ499tgW/BQ1COFLWi3HQgngA984APPZPt7MyRgpEx4tnRfguzdfZws80XPjN6TFWmy7e6EuBUYELSifNhjUwHHCcDubQCUAJS9/7fmz5+fs8yXURLQy4rZ0n0J6DJfBHR3HyeSftRVnzrqWgkKCCJtQSof5gafE3A6IGi3HQglAGX1v7fQ7xghAb1lwnP9PrrMF7q7z5drztte5svKVT8TZAsSCaBAtuC7IXxA0Glb0C47kD4HRgDbt29/rVCZL6MkoKdMeLZ0XwIF/mTv7nNHm33VkO1a9TNBeQHLvDiVQ+XDvAlgxqEy+X/u8DkBO+xAmvy0RYZ8Etl+y5cvv1rPv9FDAloDUrnSfcn2Q5f5sqq7D03MUlr1s+GbzRHo9faBHxltA/ZZ3GbcyTgAFUNR7XUIAXR0dLxq9LSfVhLQ4gRkS/dVpT+6zJdV3X2snJROrfqZWOUKiqs9QRyhReMiAbTP6OTh94adbVNvpR1Ic0kdZ6YJ4JFHHvmSmTJfWkmgUCAwW2MPghXdfQaa50Ovl97dhxSMFc1RnVz16bMppTsYDE4PbLgKCCZg5wSoIOnOkEu8OuWcCrDKDqS5lj4GTBPAypUrHzJ7DS0kkG9S5JL+ydVf8u4+2cp8IUuik9yjld/OVX9kZEQMDQ0l8zDo8+mzKY7jcrmmB1+7Oy7uqMPdZ7J8GEDlUYIRKQrCAyPOKSUrtgHJoF9GfMEUATz33HOP57P9kCSQzwnIlu5LQJf5sqK7T7bWWqjeiOqWyIrCKukEMzw8PJ02TP9Ng5dqORRybz7vDwk/0BY8EowLr8nCIekJRn3RSvHIqDNbAbQdSIoiWyzNMAGkAn9rkV8yHwnkKhOerbFHkhQsyPe3s7tPrniGnlXf7DkKrXLe7/cbShumnIBv1ONiAWQLngwaJ4Cwcj+kJNLx1IRXjMedsQVRdiCNh1yEYpgAZs+evUWr7WdFTECV/rkGebF39zE6edGrvhY5bwara8PiCh8u4NUbJltQ/1aAEooOTM0kD5r833VoK4CwA2nrnC+AbugTnnjiiav02n4IEsi8kVxVg0uhuw8xtp5gIGLVNyPnzeCrddhzArsNdBV6NxhLKohs2H7eIw6G7T+aiYgD0HvLR9SG7qqtre3HRmw/sySQPuFzpfsSSqW7j1YCMLrqI+W8GVypKICbanBqjcqHiZh2VeFTFENvgf4D3x32JZ+XXT0rpxceE3Yg7ftJqeVVGXov+tRTT21YsWLFfDtuPpME1IeR66QfoRi6+2gt80WTEbnqWy3nzYAcAWRAcJeiArTagnunCv/en8Me8etEfVKW08SiZ2nHMzNqB1L8QEsgUTcBLFu27Dt2Dox0ElBXuFwn/QjoMl9WdPfRU+Yr1zan0KrvlJw3HBNxx8WtfpwKIBGgyRaMx6Ztv0L44URNMiZAE4ueJT1XIgIrn6eRbUCuiL9pAiDbr7W11fbjUioJ0ODNJ/3J9kOX+XK6u0+mf5/ehENGOW8GZAu2uXCTqWcqvy1ICkFPF+LTsUrxTEaDUZqgpKjIirbiEA+RjZ56GET0emo5aCYAsv1WrVq13qnBoZJArodRqt190oOB6U04ZJbzxgkyIf61IQi95rGp3IRLCiHT9iuEp89Xib7YzJdIWag08ehdoLcHeoglPc1X07zS+otk+1kd+MsGuhla3Wig0yDP5Wk+fhjd3ccL7e4ztzImbkmcVVZp/U0pifxoZadnoE5wVRrKKOfN4NrqSNIW/FMIQ7z9kYTo8MVErPLiYBgpgyMGcgYmEhXiwbFasalxPK9sJxWmVqM2m4+hdbzQGCkU9JtBGFouTrbf9ddf/4adk55uJluSD7FrQ8PFyYfk91/7yiHsl+haAU353TonmKyNZwREgMTs9GNFco9sOBRxiU+fwdXo81ZWiMv8Fy8a/cFowch/PjzeNCau8Go7z0CLlpqubrTPRSGiV4/36oUmQdrZ2flzO148rXBnzpxJTv5cAZBsDPedfdiMv8a6AHTyX5ksimls8tOzoBdLKoDu3aqOyTJhmScGtQVJ5ofT7DSvBtuvEB4c014zgBQrvUNSBbRtM7I9yGcHGp38mgiAbL/Fixe3WPWyidkoWk1BFNrrFuoHmJkn/8fBCfFq/xj0Ow23LYZe74EW496x+uLViU+SkkjBbj/abnyjIQi1BSnLT7UF902Zv25P1C12TOlXYzS+6Z2Ojo7qeoe57EB1gTCKSg1feLUVEp8mPE18egi0tzd6+OG/DmMz/hrB3X1W+6PJgphGQEE/9bmkp4WWgxqggODqGqwt2BuKiUQsqtn2KwSyBY2CtgNqTgHNhUKqIJsapq2F2ZRv2w48q/t6umG6eRrYRic9EUeyGi8YvtZ2EZjXIbqqcaW5FngThp9X+vMhSy9zkKhqoFRjAy3D/UKcmoBdr7++SfS1zJXqHtV5QKqAiKCpqSlrnIB+h95/+higf2M5AShf6gXlj48Z/QDa1w8ODk5LezONPqZlS9pquPaSWWLnEMB/dblFRes8MaAo7iblGbtAfsdfIl4xEA+KWZX6Vh0Kdmp5VunJUahjxDKAHJ3H31EIALRa0/utWrhEjAMd0puqsdswdXugknpmJijt9dUxQQupkQWUVAMpS7o+bb81uQBvvfXWsJ5z/+q+3swqrweff+uIaRJo7FwkhusulPnq8lWIRh/ue3/UFxa312r/fvROsp0DIFKor6/PGy8gJYDqqOwkfvDOQPIHBf+8BWKiqQ12vbmuuPjlrGFLnwFNVhoH9M7pnRLJ01agUNAvc5Kri282J0GTC3Do0KEbtQxaNRtNzdazq8b5PZeafLHKnl+d/ISjoQRsn0h4I+QVB3UUmSTyLKR8cqkBUlzFHhvonYpAJz+932jTHOh3/HrA+tLdmSnHRO5q0E9N9aa/pzlHv0M/RBhqngjNQVIRNPFz2YiaCOCLX/zim3v37t2VbdLTYRSyNuiL0QDMVpfPCqRHRZfXV4vV843HBBovWTrz+hFsUcbnp7Q9F3pRufK/Czkk6bEBWgGKNSPwPw70Q6/XsOASEQS2wPg7b0R8vCps6zOhMUFjXlUFeiZ53u201l/s6+tbrUzyhLqvT/frEft6vciUyKQCAh4DHV79dWLYM3PCvRsR0MzCg1G3+F2ocHARtXqTs1KMaoC2cr85A/zOyvsdqa6Hfsf76ydsfSa0yJKqJgVIq7yZalGGCeC222478fbbb2/W6tdbjcyod50y+dd26U9XCCxcmvP/OxvOXSTCCJ6azN91hgi1UPFOvQdOik0NPHAQbOsuWAS93i01QeiBpUIxALVPRPrqTlsAFAno0kWf+cxn1it7jikZBkq2rcadS1tFmw4LLzCvU4xX5N6bj8RIBWC7zvwymHuC56pxkLlFKFU18NSxc+LwGO4wkK+lVQy7cPaovyIhbvfb072XEoUyx0P6pEeRgO6NUU9Pzz2yDBhiyEzcc5nGgKDLLSJNrQV/7XQ4rvvEWD78bKpKDMRnPnZ6mVo8XTPKS2Y1QNutR945i7sgneJs64R+x68okx/Z3DTXFpDkPk3wzPeUmQ6MIAHdBLB+/fpNx44d65dh0GRLj7xuTp24srlwEYWWhYs0BYbouPhIGBsQpK2AU5BVDTzyzoCYADov/rntIgQM/JHtd0tt0LL7p8WMxjMtArlUXjZ71ywJGHpCx48fXyPDoMlliz2wqsAx3upaMVij3TU4FcbaglReKt0WVHMm9ASFEFsoWdQA2X5PHz+Hu6DXB/X8CVYG/tTj7oXyN3IRgxkSMEQAt99++5t79ux53emBkyvzrb3GK27NExCk1V/3ngysAramVEC+rkZ6tj7FrAa+ubsXer2GrqXQ613jC2s++qsHNGlV+1wLEecbJ0ZJwLBGGhgYWDs6OhoVkoICgtlsweqmFjHo1i/Bz0SxtuDJmEv8KuhLBnv0Am27OqkGyPb70zlgYI1sPy+2rdbX67BJP6TgyM3RW72pULEPIyRgmADuuOOOEz09PVucnui5Vi+yBYkEMgND7vaFxidtEGsLUnJQokr/YLUiw9IpNfDNPdhaDoGFS6DXu90/BbP90lN0EU0/ECRg6lt87nOf+1Jvb++IkwSQzxajvIB0WzAwd15e268QKA1qPIyTgmQLbo8Yq3yDiAM4rQYo3bdvCvc8fbPblPeLI0ey/W6pwTxneqbpJd2MQOu/00MCpmno+PHj9zlJAIXk8AOr5k0HhhD54EdCCagt+HKkRgwm9GcwouIATqkB2k5tPQbs30C23xxsuwqS/mZtPzWLz2yxVr3vWysJmCYAsgWVrcARpwigkBx+f4tfXDunTrR0LBRTAnNKbjCEnXxPhPSnqpqpAqNHDWgpVmEElPGHtP0a53dCbb8l7qjoNnHcV5X7hVSqVhgpOa6FBCBP7NSpU9eq5wScQCF2pHMCemy/QjhN5wSAg/dwzCsOxby6J6ddCovUgNEONdlwaCwotr8L3DlW1150mhOz+hu/XzWLT2+F3rwT1WDMoBAJQAggFRD8nVMEUIgdyRa8swG7ap8NYQ0QIyrAym1AtoGEUgMPgE/7GbF18+FGZeU3YvvROMyVxWcWWtLE8727XNs5mGZas2bNNU7ZglrKYd1aF4GmcdI5geEwzhYcSrjEyxF9jgByVbZLDbx6Zhxq+1U1NhuydXOBAn9f0Znvr2bx0SptVZ8Gs6W/aI5kK0IK9SIOHDjwPScIQIscrlMm/z1N2DPcp0NYW/CFiF9MJip1vVQnYFQNUOAPfdbfM68Ler3P1eo77ac1i8+OMV4I9B0zSQBKAOvWrfs3p23BfLjZHxXLvDiGpurSY0BbcCpRIZ4NB2wdFHaqgaeOn4PafoF5C0zZuplI5vtrtP3UQztas/hkQSYJwLMRjhw5crsTN6Y1ow6tAqh82CRQBrwVrRYn49q9bDvjAGbUAOX7Q20/C8p8aTntp2bx5Tu0YwWQJJNOAnACuO22257bv3//LrsHotaXQR16qFY/EsjkIIIeFaBWZXISWtTAD8Cn/Zo7OsUUuMxXIdvP6iw+J5SAJXfS39+/2m5bUE+fgLsawtCAIJUPm4riAoJkC/4lVqXpd2UajLnUAOX7Q20/f50YqmmCfvevBybzTny18aYTch9ZAiyTBCwZPWQLHjhwYLus7EedetbWYVVAXygGvd6zIW0qILN2vIxq4BFkhV8FlNSFBNl+Sz3RrHIfkcVnFvn6ApqFZcvHZz/72ZvttgX1BKTIFmxzY21BZOEQsgW3h+Wa3EbUwAvKyo+0/ajMF9r2yyzxjc7iQ6zURUcAhH379n3NzgeVrZlGLpAtSFsBJNDlw34drdV0TkDWWn8xbxU26cflFt65HdDvSLZf+nbQiiw+s7CShCwlADonYKctmKuefi6QLXhlFU66U/mw88AiomQLalEBsgalnjkxDA38Bea2Y22/yth0kU8rs/gQaqooCYDQ09Nzo10Pysg5eStsQeQ5AbIFC50TkC0OkIyJTEXEo0ewtt84uMzXNzxnp0tvW5nFZ3rbY2HCl+UEYHf5ML2++HJvHG4LorsKGa0Z4CQePIwN/FF3HyTI9qN8fzM59qUAW7QjlQ+zyxY0kqdOKgBtC45FsLYgKYF8MHJc1CpQ0O+1s0DryoLuPvfWjiRXfT1xI6dg5ZbEFgIgW3Dv3r0/soXRDOyHKSCItgUHQlHsOYFw/nMCMslX9OpvRXefllgwZxdmVgAWgMqHKUrA8q5CuSoFF8KdDWGsLRivgGYIXjgtmNv+crpVm4odfWOiZzwEu54V3X0+X/E3gnKir6WucTQyUhoEQJCpq1A2PNASgl4PXT6MYgFGyofZBQp+PnhI7u4+X66ZEPXui311I5WZbVuhLXZ4bCUAu8qHGfXF6ZwA0hYkDIPLhz0bqpM2DvDoX4ekL/P1adfIjD21LOopG6wOUtpuIPf29q6zOiBoZj+MVgHvgsuHvR3z5bQFnYwDkO33zMlh3AW9PniZr7s8uW1JGQ5VlXQMQAXZglaXDzOzr6NzApQmDN3HwU8LZl+xnKwP8O192EIf6O4+H/PmL/Ml65l+q9WJIylkVncVMts4g+oHIm3Bs9EKaPmwU3F3VlvQioYhWkC235+HgfFdC7r73OkezDvJqRS6jLCamBwhADu6CpmpW0e2ILqI6GmwLfhjRQVkswWtahiSd/XffwZ6PXR3n/XeUUXZFd4eWXXslgkgC6zuKmTW312rbAOw5cOwtuBUjq5CdlcIonz/08AyX/5kmS9sd5/PVmkLjuo9S8IxAJOwsnwYIn8afU7Ajq5CdvraFNz84RFsdx90ma9/8Z4TtUL79svuSst5Sd4GNecoAVD5MKtsQURAjGzBa2uwNsxg0NquQnbGAcjzh5b56rxEBIFDcqUrKG7w6ZvQTsVRsiFbGe+SIgCC012FCqsA7Es4HbW+q5Ad24DD4yHxYt8YkLFrxVAttszXbVX680Go2KfThVZVWF1qXAoCsLKrECLDi2xBeFchi1WAHTIWmvGXWv2R+JR7QqxyGfP2ZTkfYEdehxSVJKzqKoR6gPCuQvEKMRJCnxOohcY/8uG3Zyegth919xny4AJwtRVx8aUq41WSZDkfYEcDWGlKyVjRVUhPpeB8sKKrUF84bllXIasTgqCn/Vxu4ZmHLfK5xjUq5laaW09ksATt6PwkDQEUQ1ch5DkBsvHGQmHo9dL7CVi1j6UqP1DbL1nmCxd4m6NM/FsSZ0z75+ViCUpVTM6K8mHIgpl3gWMBR5X5b1VXISviAJTv//QJbL4/2va72zecDOQh3rsTSVXpsCM9WSoCoHMC6K5CyNNUV/qi4gYfdlAgVQBBVQFWyEfy/KG23/xOqO23yhUSV7unpu/f7OlIO6LwrAAygO4qhJRyVJzhq/WhZHYZCr3RCjFpQVchdByA8v2hth919wHbfndXXaxOzDbudKr7sjrWypIAyBZ86aWXfnD06FHI9VCJHTSQKDpMraOpljwSp4PYcwL5KgcZJoBhrPKh1R+JT3nOi8WVM9WU2WCezMVCEKiQ9Rhkd3c3bQUul/XBvXLrv4upAG4FaxdhMacOU/3Xe/KwaHnmIej9Hl5wuejpeC/kWq76JhFbgDvu6wlPiWu3fkt4QlMyzzU6/LZZsu903C3xA9ug/PxW1i936ZvbxM5P/TPsemeiQjTFE8JbaX7fWd2Db87cMtKPIYBkmS+s7bfkj/8r++S/b8eOHRs5BqADygN7TflD2gajc47uFs1978CuF3V7Rf858xF21+iQqN35Mvx+m0fPJH/Mwt3YLGIeXIJL9fg50bX7NzJP/hOyTn6pCSBNBUiLS9/YBr3egNdv+pxAwy+sq76+suf3JvcmPhFt64J+p1WvbhU8hkuUABTmPE7ySdbvVzf4rph/6A/Qa54xoQJo7+9TfqxCTXBCdPUeMv79Zs3FqhJFgTX39sg8hF9XxvALTADmsEn5kTYUu+LNbckgFAqjVQFxbtKYy9D4iyctv98lJ3cLT9RAQpS/ToSbsQSw8hVe/UueABQGHZH5QVLwiYJQSJwKxXTbgoE3dyj7/0Hr7zcaTpKA06t/1+7fiprxIZmH7hZl7O5iAsCQwGaSU7J+PwpCUTAKhajLIwbGtfvXlQoJ1e58xb777T0o6s5r36q4mmaLMNAyJcW1ZOcvZB6yo8Ww+hcNAaSwUeYvhw5G9Qqv5vJhda/8RFQG7S1ldemRnRpnv1uI1nnYbdcb22S3/TamlCsTAFAFvCYuJFNICQpGIW3BJAkMFw59eM6eEjV73rL/fkfPiDlDpwpL/6ZZIubBpdRaEXgFg2y/TcUyr4pJAagqQNqAIDoodc5TU9AWrHv5J47d74qjfyow+30iPLcTqzze/KnsY3RdMU2ooiKAlC0oLbtSUGrJTmxA8ORI7mOtNXt/b6ntV/B+gxNiyck9uef/nPnQz5tzbE8x2H6vMQFYCyKAE7J+OQoIIm3BoLdaDGSxBSnwF3hjh/P323swqy3oItuvAdfbj57pCnDiVbmv/kVJAMVgC6IHal9wpi1I6b522H4F7zcaVrYCMwOClXM7oJ+zUCFWyW2/76cUKhOADSRA2VXS2oIUpKJgFQpRt0f0p50Pv5Dv/4o893vmyEXnBNwtrSJSHYBdvwjy/SkutbEY51JREkAKcp8TAAer+l0107YgJf3YbfsVwtITqeQgl1skZrVjr/3HX8hu+20oFtuvZAgglWUltS2ItqtOnhtN5vs7YfsVvF9FAdA5AZ+y+iNtPwr8SW777U4lqhUl3KK4QSpgtfJTL+OXW/nq1uTgHWxfjHlZsaho2v+GtC+DYgFVtbUienIv5Ho1Y0OyT37plWghSFsRSCu6u7tp73WvYDDsx3Zl9V9dzDdQWexvIFVs4QSPRQav/mVIACms47HIsBn3FaPtV5IEkMq+ep3HJMMmkOLcVAo3UllCL4VVAMMubCxW269kCSAlx77PY5NhMV4vZtuvlBVAkpmFxKcFGSUzxgQTgJwqYKTUXhBDKmwpttN+5aYARKoYw24eqwwwijbfv6wIIIUNPF4ZYGwqBdsvE0WfCZgL3d3ddGLwJh63DACozFdnKd5YZQm/NFYBDB5L5UoAsncVYhQNpO/uwwSQZ98m2BZk8OpfngQge/kwhvT4fjF092ECyE8CmwWfE2DoR0nafmVHACls5PHM0DtmSiXfPx9K1gbMRHd3NymBtTyuGRpQsrZfuSoAVQVwQJChBevK5UbLhgBk7yrEkAavl1q+PxPA3yB1VyEGr/5MANaqALYFGflwXynm+zMBXEwCUncVYjiG0XLcIlaW6ctmFcCYMSbKwfbLRNnYgJlgW5CRBurus7Icb7yyjF/6BsG2IKPMFWHZEgCXD2OksL2cbD8mgItJgG3B8saoKPN4UCWPAe4nUMbYVG62HxPATBVA8o9twfJDyXT3YQJgFcDQj43laPsxAWRXASQDuatQ+aCkuvswAYBWBMG2YDm9awYTwEUqgOTgNRwPKPl9/83lbPtlomwzARkMBhMAg8EEwGAwmAAYDAYTAIPBYAJgMBhMAAwGgwmAwWAwATAYDCYABoPBBMBgMJgAGAwGEwCDwWACYDAYTAAMBoMJgMFgMAEwGAwmAAaDwQTAYDCYABgMBhMAg8FgAmAwGEwADAaDCYDBYNiA/xdgAI48f6T4c9ZhAAAAAElFTkSuQmCC;" parent="1" vertex="1">
          <mxGeometry x="-10" y="420" width="135.5" height="135.5" as="geometry" />
        </mxCell>
        <mxCell id="_Jc5pRLIT6cwghWnT4pu-2" value="&lt;div style=&quot;text-align: center; font-size: 20px;&quot;&gt;&lt;span style=&quot;background-color: rgb(255, 255, 255); font-family: arial, sans-serif;&quot;&gt;&lt;font style=&quot;font-size: 20px;&quot;&gt;Identity and Access management (Keycloak)&lt;/font&gt;&lt;/span&gt;&lt;/div&gt;&lt;div style=&quot;text-align: center; font-size: 20px;&quot;&gt;&lt;span style=&quot;background-color: rgb(255, 255, 255); font-family: arial, sans-serif;&quot;&gt;&lt;font style=&quot;font-size: 20px;&quot;&gt;uc-iam-drk.fit.fraunhofer.de&lt;/font&gt;&lt;/span&gt;&lt;/div&gt;&lt;div style=&quot;text-align: center; font-size: 20px;&quot;&gt;Multitenancy (separated &quot;realms&quot; for each connector&quot;)&lt;br&gt;&lt;/div&gt;&lt;div style=&quot;text-align: center; font-size: 20px;&quot;&gt;&lt;span style=&quot;background-color: rgb(255, 255, 255); font-family: arial, sans-serif;&quot;&gt;&lt;font style=&quot;font-size: 20px;&quot;&gt;&lt;br&gt;&lt;/font&gt;&lt;/span&gt;&lt;/div&gt;&lt;div style=&quot;text-align: center; font-size: 20px;&quot;&gt;&lt;span style=&quot;background-color: rgb(255, 255, 255); font-family: arial, sans-serif;&quot;&gt;&lt;br&gt;&lt;/span&gt;&lt;/div&gt;" style="text;whiteSpace=wrap;html=1;" parent="1" vertex="1">
          <mxGeometry x="-160" y="555.5" width="410" height="70" as="geometry" />
        </mxCell>
        <mxCell id="Ju1k-qK01QZzVdO8_IxP-13" value="" style="sketch=0;pointerEvents=1;shadow=0;dashed=0;html=1;strokeColor=none;fillColor=#505050;labelPosition=center;verticalLabelPosition=bottom;verticalAlign=top;outlineConnect=0;align=center;shape=mxgraph.office.security.token;" parent="1" vertex="1">
          <mxGeometry x="1149.5" y="320" width="41" height="52" as="geometry" />
        </mxCell>
        <mxCell id="Ju1k-qK01QZzVdO8_IxP-14" value="&lt;font style=&quot;font-size: 22px;&quot;&gt;Dynamic Attribute Token (DAT)&lt;/font&gt;" style="text;html=1;align=center;verticalAlign=middle;resizable=0;points=[];autosize=1;strokeColor=none;fillColor=none;fontSize=16;" parent="1" vertex="1">
          <mxGeometry x="1204.4" y="332" width="320" height="40" as="geometry" />
        </mxCell>
        <mxCell id="Ju1k-qK01QZzVdO8_IxP-16" value="" style="edgeStyle=orthogonalEdgeStyle;rounded=0;orthogonalLoop=1;jettySize=auto;html=1;entryX=1;entryY=0;entryDx=0;entryDy=15;entryPerimeter=0;" parent="1" source="sRP4vnEstUWdpdvkVeDb-5" target="Ju1k-qK01QZzVdO8_IxP-15" edge="1">
          <mxGeometry relative="1" as="geometry">
            <mxPoint x="360" y="731" as="sourcePoint" />
            <mxPoint x="230" y="818" as="targetPoint" />
          </mxGeometry>
        </mxCell>
        <mxCell id="Ju1k-qK01QZzVdO8_IxP-15" value="" style="sketch=0;pointerEvents=1;shadow=0;dashed=0;html=1;strokeColor=none;fillColor=#505050;labelPosition=center;verticalLabelPosition=bottom;verticalAlign=top;outlineConnect=0;align=center;shape=mxgraph.office.security.token;" parent="1" vertex="1">
          <mxGeometry x="283" y="760" width="29" height="37" as="geometry" />
        </mxCell>
        <mxCell id="Ju1k-qK01QZzVdO8_IxP-21" value="" style="outlineConnect=0;dashed=0;verticalLabelPosition=bottom;verticalAlign=top;align=center;html=1;shape=mxgraph.aws3.iam;fillColor=#759C3E;gradientColor=none;" parent="1" vertex="1">
          <mxGeometry x="1148.5" y="400" width="42" height="81" as="geometry" />
        </mxCell>
        <mxCell id="Ju1k-qK01QZzVdO8_IxP-22" value="&lt;font style=&quot;font-size: 22px;&quot;&gt;Dynamic&lt;span style=&quot;font-family: arial, sans-serif; text-align: left; background-color: rgb(255, 255, 255);&quot;&gt;&amp;nbsp;Attribute Provisioning Service (&lt;/span&gt;&lt;span style=&quot;font-family: arial, sans-serif; text-align: left; background-color: rgb(255, 255, 255);&quot;&gt;DAPS&lt;/span&gt;&lt;span style=&quot;font-family: arial, sans-serif; text-align: left; background-color: rgb(255, 255, 255);&quot;&gt;)&lt;/span&gt;&lt;/font&gt;" style="text;html=1;align=center;verticalAlign=middle;resizable=0;points=[];autosize=1;strokeColor=none;fillColor=none;fontSize=16;" parent="1" vertex="1">
          <mxGeometry x="1190.5" y="420.5" width="480" height="40" as="geometry" />
        </mxCell>
        <mxCell id="Ju1k-qK01QZzVdO8_IxP-23" value="" style="outlineConnect=0;dashed=0;verticalLabelPosition=bottom;verticalAlign=top;align=center;html=1;shape=mxgraph.aws3.connect;fillColor=#759C3E;gradientColor=none;" parent="1" vertex="1">
          <mxGeometry x="1129.4" y="500" width="90" height="69" as="geometry" />
        </mxCell>
        <mxCell id="Ju1k-qK01QZzVdO8_IxP-24" value="&lt;font style=&quot;font-size: 22px;&quot;&gt;EDC Core&lt;/font&gt;" style="text;html=1;align=center;verticalAlign=middle;resizable=0;points=[];autosize=1;strokeColor=none;fillColor=none;fontSize=16;" parent="1" vertex="1">
          <mxGeometry x="1246" y="515.5" width="120" height="40" as="geometry" />
        </mxCell>
        <mxCell id="Ju1k-qK01QZzVdO8_IxP-25" value="" style="sketch=0;pointerEvents=1;shadow=0;dashed=0;html=1;strokeColor=none;fillColor=#DF8C42;labelPosition=center;verticalLabelPosition=bottom;verticalAlign=top;align=center;outlineConnect=0;shape=mxgraph.veeam2.restful_api;" parent="1" vertex="1">
          <mxGeometry x="1129.4" y="592" width="94" height="87" as="geometry" />
        </mxCell>
        <mxCell id="Ju1k-qK01QZzVdO8_IxP-26" value="&lt;font style=&quot;font-size: 22px;&quot;&gt;REST API&lt;/font&gt;" style="text;html=1;align=center;verticalAlign=middle;resizable=0;points=[];autosize=1;strokeColor=none;fillColor=none;" parent="1" vertex="1">
          <mxGeometry x="1240" y="615.5" width="120" height="40" as="geometry" />
        </mxCell>
        <mxCell id="Ju1k-qK01QZzVdO8_IxP-27" value="" style="shadow=0;dashed=0;html=1;strokeColor=none;fillColor=#4495D1;labelPosition=center;verticalLabelPosition=bottom;verticalAlign=top;align=center;outlineConnect=0;shape=mxgraph.veeam.2d.web_ui;" parent="1" vertex="1">
          <mxGeometry x="1135.1999999999998" y="712.2" width="84.8" height="84.8" as="geometry" />
        </mxCell>
        <mxCell id="Ju1k-qK01QZzVdO8_IxP-28" value="&lt;font style=&quot;font-size: 22px;&quot;&gt;Connector Web GUI&lt;/font&gt;" style="text;html=1;align=center;verticalAlign=middle;resizable=0;points=[];autosize=1;strokeColor=none;fillColor=none;" parent="1" vertex="1">
          <mxGeometry x="1220" y="734.6" width="220" height="40" as="geometry" />
        </mxCell>
        <mxCell id="Ju1k-qK01QZzVdO8_IxP-29" value="" style="outlineConnect=0;dashed=0;verticalLabelPosition=bottom;verticalAlign=top;align=center;html=1;shape=mxgraph.aws3.bucket_with_objects;fillColor=#E05243;gradientColor=none;" parent="1" vertex="1">
          <mxGeometry x="1144.4" y="829.9954280510018" width="60" height="63.374863387978145" as="geometry" />
        </mxCell>
        <mxCell id="Ju1k-qK01QZzVdO8_IxP-30" value="&lt;font style=&quot;font-size: 22px;&quot;&gt;Object Storage&lt;/font&gt;" style="text;html=1;align=center;verticalAlign=middle;resizable=0;points=[];autosize=1;strokeColor=none;fillColor=none;" parent="1" vertex="1">
          <mxGeometry x="1221" y="841.6800000000001" width="170" height="40" as="geometry" />
        </mxCell>
        <mxCell id="Ju1k-qK01QZzVdO8_IxP-34" value="" style="sketch=0;outlineConnect=0;fontColor=#232F3E;gradientColor=none;fillColor=#B0084D;strokeColor=none;dashed=0;verticalLabelPosition=bottom;verticalAlign=top;align=center;html=1;fontSize=12;fontStyle=0;aspect=fixed;pointerEvents=1;shape=mxgraph.aws4.mq_broker;" parent="1" vertex="1">
          <mxGeometry x="1114.3999999999999" y="916.38" width="120" height="120" as="geometry" />
        </mxCell>
        <mxCell id="Ju1k-qK01QZzVdO8_IxP-35" value="&lt;font style=&quot;font-size: 22px;&quot;&gt;IDS Broker&lt;/font&gt;" style="text;html=1;align=center;verticalAlign=middle;resizable=0;points=[];autosize=1;strokeColor=none;fillColor=none;" parent="1" vertex="1">
          <mxGeometry x="1235" y="956.38" width="130" height="40" as="geometry" />
        </mxCell>
        <mxCell id="Ju1k-qK01QZzVdO8_IxP-40" value="&lt;font style=&quot;font-size: 18px;&quot;&gt;Contract definition&lt;/font&gt;" style="rounded=0;whiteSpace=wrap;html=1;" parent="1" vertex="1">
          <mxGeometry x="97.5" y="1150" width="150" height="80" as="geometry" />
        </mxCell>
        <mxCell id="Ju1k-qK01QZzVdO8_IxP-45" value="" style="edgeStyle=orthogonalEdgeStyle;rounded=0;orthogonalLoop=1;jettySize=auto;html=1;startArrow=classic;startFill=1;" parent="1" source="Ju1k-qK01QZzVdO8_IxP-41" target="sRP4vnEstUWdpdvkVeDb-140" edge="1">
          <mxGeometry relative="1" as="geometry" />
        </mxCell>
        <mxCell id="Ju1k-qK01QZzVdO8_IxP-41" value="&lt;font style=&quot;font-size: 18px;&quot;&gt;Contract definition&lt;/font&gt;" style="rounded=0;whiteSpace=wrap;html=1;" parent="1" vertex="1">
          <mxGeometry x="552.5" y="1150" width="150" height="80" as="geometry" />
        </mxCell>
        <mxCell id="Ju1k-qK01QZzVdO8_IxP-42" value="" style="edgeStyle=orthogonalEdgeStyle;rounded=0;orthogonalLoop=1;jettySize=auto;html=1;startArrow=classic;startFill=1;" parent="1" source="sRP4vnEstUWdpdvkVeDb-74" target="Ju1k-qK01QZzVdO8_IxP-40" edge="1">
          <mxGeometry relative="1" as="geometry" />
        </mxCell>
        <mxCell id="Ju1k-qK01QZzVdO8_IxP-46" style="edgeStyle=orthogonalEdgeStyle;rounded=0;orthogonalLoop=1;jettySize=auto;html=1;entryX=0.5;entryY=0;entryDx=0;entryDy=0;startArrow=classic;startFill=1;" parent="1" target="Ju1k-qK01QZzVdO8_IxP-41" edge="1">
          <mxGeometry relative="1" as="geometry">
            <mxPoint x="627.5" y="1122.75" as="sourcePoint" />
          </mxGeometry>
        </mxCell>
        <mxCell id="Ju1k-qK01QZzVdO8_IxP-47" value="&lt;font style=&quot;font-size: 18px;&quot;&gt;Negotiate / Transfer&lt;/font&gt;" style="rounded=0;whiteSpace=wrap;html=1;" parent="1" vertex="1">
          <mxGeometry x="350" y="927.25" width="120" height="60" as="geometry" />
        </mxCell>
        <mxCell id="Ju1k-qK01QZzVdO8_IxP-48" style="edgeStyle=orthogonalEdgeStyle;rounded=0;orthogonalLoop=1;jettySize=auto;html=1;entryX=0;entryY=0.5;entryDx=0;entryDy=0;" parent="1" source="sRP4vnEstUWdpdvkVeDb-67" target="Ju1k-qK01QZzVdO8_IxP-47" edge="1">
          <mxGeometry relative="1" as="geometry" />
        </mxCell>
        <mxCell id="Ju1k-qK01QZzVdO8_IxP-49" style="edgeStyle=orthogonalEdgeStyle;rounded=0;orthogonalLoop=1;jettySize=auto;html=1;entryX=1;entryY=0.5;entryDx=0;entryDy=0;" parent="1" target="Ju1k-qK01QZzVdO8_IxP-47" edge="1">
          <mxGeometry relative="1" as="geometry">
            <mxPoint x="580.5" y="957.25" as="sourcePoint" />
          </mxGeometry>
        </mxCell>
        <mxCell id="Ju1k-qK01QZzVdO8_IxP-52" value="" style="sketch=0;pointerEvents=1;shadow=0;dashed=0;html=1;strokeColor=none;fillColor=#505050;labelPosition=center;verticalLabelPosition=bottom;verticalAlign=top;outlineConnect=0;align=center;shape=mxgraph.office.security.token;" parent="1" vertex="1">
          <mxGeometry x="300" y="916.38" width="29" height="37" as="geometry" />
        </mxCell>
        <mxCell id="Ju1k-qK01QZzVdO8_IxP-53" value="" style="sketch=0;pointerEvents=1;shadow=0;dashed=0;html=1;strokeColor=none;fillColor=#505050;labelPosition=center;verticalLabelPosition=bottom;verticalAlign=top;outlineConnect=0;align=center;shape=mxgraph.office.security.token;" parent="1" vertex="1">
          <mxGeometry x="490" y="914" width="29" height="37" as="geometry" />
        </mxCell>
        <mxCell id="Ju1k-qK01QZzVdO8_IxP-55" style="edgeStyle=orthogonalEdgeStyle;rounded=0;orthogonalLoop=1;jettySize=auto;html=1;entryX=0;entryY=0.5;entryDx=0;entryDy=0;startArrow=classic;startFill=1;" parent="1" source="sRP4vnEstUWdpdvkVeDb-68" target="_Jc5pRLIT6cwghWnT4pu-1" edge="1">
          <mxGeometry relative="1" as="geometry">
            <Array as="points">
              <mxPoint x="-190" y="1066" />
              <mxPoint x="-190" y="488" />
            </Array>
          </mxGeometry>
        </mxCell>
        <mxCell id="j5hcY3sLRwF9U_vOK_Yq-1" value="&lt;font style=&quot;font-size: 19px;&quot;&gt;Version: 2024-01-26&lt;/font&gt;" style="text;html=1;align=center;verticalAlign=middle;resizable=0;points=[];autosize=1;strokeColor=none;fillColor=none;" vertex="1" parent="1">
          <mxGeometry x="273" y="1300" width="190" height="40" as="geometry" />
        </mxCell>
      </root>
    </mxGraphModel>
  </diagram>
</mxfile>
